<svg width="416" height="512" viewBox="0 0 416 512" fill="none" xmlns="http://www.w3.org/2000/svg">
<path d="M272 96C298.51 96 320 74.51 320 48C320 21.49 298.51 0 272 0C245.49 0 224 21.49 224 48C224 74.51 245.49 96 272 96ZM113.69 317.47L98.89 351.99H32C14.33 351.99 0 366.32 0 383.99C0 401.66 14.33 415.99 32 415.99H109.45C128.7 415.99 146.03 404.55 153.56 386.9L162.35 366.38L151.68 360.08C134.36 349.85 121.62 334.71 113.69 317.47ZM384 223.99H339.97L313.91 170.74C301.41 145.19 278.46 126.51 252.13 119.8L181.05 98.66C152.75 91.86 123.28 98.11 100.21 115.8L60.54 146.21C46.51 156.96 43.85 177.04 54.62 191.07C65.39 205.1 85.46 207.73 99.48 196.99L139.17 166.58C146.84 160.69 156.61 158.58 164.44 160.44L179.14 164.81L141.68 252.2C129.06 281.68 140.37 316.21 167.98 332.51L252.96 382.68L225.49 470.41C220.21 487.27 229.6 505.22 246.46 510.5C249.65 511.5 252.87 511.98 256.04 511.98C269.65 511.98 282.27 503.21 286.56 489.53L318.2 388.47C324.11 367.7 315.31 345.39 296.56 334.08L235.32 297.94L266.63 219.66L286.9 261.09C294.9 277.43 311.82 287.98 330.01 287.98H384C401.67 287.98 416 273.65 416 255.98C416 238.31 401.67 223.99 384 223.99Z" fill="#222222"/>
</svg>
