<svg width="740" height="563" viewBox="0 0 740 563" fill="none" xmlns="http://www.w3.org/2000/svg">
<g filter="url(#filter0_d_6_1731)">
<path fill-rule="evenodd" clip-rule="evenodd" d="M432.261 0H232.356C229.421 0 226.607 1.16301 224.532 3.23319C222.457 5.30337 221.291 8.11113 221.291 11.0388C221.291 13.9665 222.457 16.7742 224.532 18.8444C226.607 20.9146 229.421 22.0776 232.356 22.0776H320.874C323.809 22.0776 326.623 23.2406 328.698 25.3108C330.773 27.381 331.939 30.1887 331.939 33.1164C331.939 36.0441 330.773 38.8518 328.698 40.922C326.623 42.9922 323.809 44.1552 320.874 44.1552H210.226C207.292 44.1552 204.477 45.3182 202.402 47.3884C200.327 49.4586 199.162 52.2663 199.162 55.194C199.162 58.1217 200.327 60.9294 202.402 62.9996C204.477 65.0698 207.292 66.2328 210.226 66.2328H272.189C275.124 66.2328 277.938 67.3958 280.013 69.466C282.088 71.5361 283.254 74.3439 283.254 77.2716C283.254 80.1993 282.088 83.007 280.013 85.0772C277.938 87.1474 275.124 88.3104 272.189 88.3104H240.101C236.873 88.3104 233.777 89.5897 231.495 91.8669C229.212 94.1441 227.93 97.2326 227.93 100.453C227.93 103.673 229.212 106.762 231.495 109.039C233.777 111.316 236.873 112.596 240.101 112.596H283.254C286.188 112.596 289.003 113.759 291.078 115.829C293.153 117.899 294.319 120.707 294.319 123.634C294.319 126.562 293.153 129.37 291.078 131.44C289.003 133.51 286.188 134.673 283.254 134.673H192.523C189.588 134.673 186.774 135.836 184.699 137.906C182.624 139.977 181.458 142.784 181.458 145.712C181.458 148.64 182.624 151.448 184.699 153.518C186.774 155.588 189.588 156.751 192.523 156.751H309.809C312.744 156.751 315.558 157.914 317.633 159.984C319.708 162.054 320.874 164.862 320.874 167.79C320.874 170.717 319.708 173.525 317.633 175.595C315.558 177.665 312.744 178.828 309.809 178.828H238.995C236.06 178.828 233.246 179.992 231.171 182.062C229.096 184.132 227.93 186.94 227.93 189.867C227.93 192.795 229.096 195.603 231.171 197.673C233.246 199.743 236.06 200.906 238.995 200.906H432.261C438.515 200.888 444.508 198.401 448.931 193.989C453.353 189.577 455.846 183.598 455.864 177.358V23.548C455.846 17.3083 453.353 11.3294 448.931 6.9172C444.508 2.50505 438.515 0.0182473 432.261 0ZM370.29 132.983H386.644L410.421 62.919H394.068L379.018 116.368L363.669 62.919H348.118L332.968 116.368L317.719 62.919H300.664L324.34 132.983H340.594L355.542 82.4374L370.29 132.983Z" fill="white"/>
<path d="M268.502 222.984H57.5328C54.5982 222.984 51.7838 224.147 49.7088 226.217C47.6337 228.287 46.468 231.095 46.468 234.023C46.468 236.95 47.6337 239.758 49.7088 241.828C51.7838 243.898 54.5982 245.061 57.5328 245.061H157.116C160.05 245.061 162.865 246.225 164.94 248.295C167.015 250.365 168.18 253.173 168.18 256.1C168.18 259.028 167.015 261.836 164.94 263.906C162.865 265.976 160.05 267.139 157.116 267.139H17.6996C16.2449 267.136 14.8039 267.42 13.4591 267.974C12.1144 268.527 10.8922 269.34 9.86265 270.365C8.83306 271.39 8.01624 272.608 7.45892 273.949C6.90161 275.289 6.61475 276.727 6.61475 278.178C6.61475 279.629 6.90161 281.066 7.45892 282.407C8.01624 283.747 8.83306 284.965 9.86265 285.991C10.8922 287.016 12.1144 287.829 13.4591 288.382C14.8039 288.936 16.2449 289.219 17.6996 289.217H139.412C142.347 289.217 145.161 290.38 147.236 292.45C149.311 294.52 150.477 297.328 150.477 300.255C150.477 303.183 149.311 305.991 147.236 308.061C145.161 310.131 142.347 311.294 139.412 311.294H78.5558C75.3314 311.3 72.241 312.582 69.963 314.858C67.685 317.135 66.4056 320.22 66.4056 323.437C66.4056 326.654 67.685 329.739 69.963 332.016C72.241 334.292 75.3314 335.574 78.5558 335.58H115.069C118.004 335.58 120.818 336.743 122.893 338.813C124.968 340.883 126.134 343.691 126.134 346.618C126.134 349.546 124.968 352.354 122.893 354.424C120.818 356.494 118.004 357.657 115.069 357.657H50.8939C47.9593 357.657 45.145 358.82 43.0699 360.89C40.9949 362.961 39.8291 365.768 39.8291 368.696C39.8291 371.624 40.9949 374.431 43.0699 376.502C45.145 378.572 47.9593 379.735 50.8939 379.735H130.56C133.495 379.735 136.309 380.898 138.384 382.968C140.459 385.038 141.625 387.846 141.625 390.774C141.625 393.701 140.459 396.509 138.384 398.579C136.309 400.649 133.495 401.812 130.56 401.812H68.5975C65.663 401.812 62.8486 402.975 60.7735 405.046C58.6985 407.116 57.5328 409.924 57.5328 412.851C57.5328 415.779 58.6985 418.587 60.7735 420.657C62.8486 422.727 65.663 423.89 68.5975 423.89H268.502C274.757 423.872 280.75 421.385 285.172 416.973C289.595 412.561 292.087 406.582 292.106 400.342V246.532C292.087 240.292 289.595 234.313 285.172 229.901C280.75 225.489 274.757 223.002 268.502 222.984ZM213.305 355.967L207.786 342.354H175.281L169.763 355.967H153.409L183.909 285.903H200.263L230.26 355.967H213.305Z" fill="white"/>
<path d="M202.678 329.646H180.507L191.642 302.421L202.678 329.646Z" fill="white"/>
<path d="M492.019 222.987H337.847C331.593 223.005 325.6 225.492 321.177 229.904C316.755 234.316 314.262 240.295 314.244 246.535V400.345C314.262 406.585 316.755 412.563 321.177 416.976C325.6 421.388 331.593 423.875 337.847 423.893H492.019C498.273 423.875 504.266 421.388 508.689 416.976C513.111 412.563 515.604 406.585 515.622 400.345V246.535C515.604 240.295 513.111 234.316 508.689 229.904C504.266 225.492 498.273 223.005 492.019 222.987ZM440.283 347.011C437.787 350.339 434.395 352.89 430.502 354.368C425.991 356.101 421.188 356.951 416.355 356.871C410.635 356.866 404.962 355.849 399.598 353.868C394.387 352.023 389.559 349.241 385.353 345.66L391.673 332.749C395.285 335.993 399.424 338.599 403.914 340.455C407.893 342.249 412.189 343.235 416.554 343.357C419.233 343.506 421.898 342.881 424.23 341.557C424.998 341.035 425.641 340.351 426.113 339.553C426.585 338.754 426.874 337.862 426.96 336.939C427.047 336.017 426.928 335.086 426.612 334.215C426.296 333.343 425.791 332.552 425.133 331.898C423.762 330.651 422.16 329.682 420.418 329.045C418.512 328.312 415.887 327.479 412.543 326.544C408.524 325.484 404.585 324.145 400.752 322.539C397.668 321.174 394.965 319.078 392.878 316.433C390.54 313.29 389.369 309.433 389.567 305.523C389.49 301.568 390.685 297.691 392.978 294.463C395.4 291.179 398.704 288.646 402.509 287.158C407.041 285.372 411.884 284.504 416.755 284.606C421.582 284.607 426.382 285.314 431.003 286.706C435.395 287.977 439.583 289.865 443.442 292.311L437.322 305.424C433.715 303.223 429.859 301.459 425.834 300.168C422.493 298.995 418.992 298.338 415.452 298.219C413.18 298.104 410.922 298.624 408.93 299.719C408.166 300.167 407.539 300.813 407.115 301.588C406.691 302.364 406.486 303.239 406.522 304.122C406.5 305.296 406.814 306.452 407.427 307.454C408.04 308.456 408.927 309.263 409.984 309.779C413.391 311.507 416.972 312.866 420.669 313.833C424.723 314.962 428.695 316.367 432.557 318.037C435.692 319.457 438.431 321.621 440.533 324.341C442.871 327.561 444.039 331.48 443.844 335.451C443.948 339.588 442.697 343.646 440.283 347.011ZM648.239 301.97C644.955 300.109 641.232 299.159 637.456 299.219H623.811V342.659H638.156C641.837 342.71 645.463 341.758 648.641 339.905C651.737 338.084 654.258 335.431 655.916 332.249C657.7 328.784 658.595 324.933 658.522 321.038C658.585 317.095 657.636 313.201 655.764 309.728C654.025 306.496 651.419 303.811 648.239 301.97Z" fill="white"/>
<path d="M715.527 222.987H561.355C555.101 223.005 549.108 225.492 544.685 229.904C540.263 234.316 537.77 240.295 537.752 246.535V400.345C537.77 406.585 540.263 412.563 544.685 416.976C549.108 421.388 555.101 423.875 561.355 423.893H715.527C721.782 423.875 727.775 421.388 732.197 416.976C736.62 412.563 739.112 406.585 739.131 400.345V246.535C739.112 240.295 736.62 234.316 732.197 229.904C727.775 225.492 721.782 223.005 715.527 222.987ZM669.911 339.105C666.736 344.406 662.129 348.707 656.616 351.515C650.591 354.565 643.908 356.095 637.153 355.97H607.957V285.906H637.754C644.413 285.789 650.997 287.319 656.919 290.36C662.375 293.175 666.915 297.48 670.011 302.772C673.178 308.298 674.79 314.575 674.674 320.939C674.787 327.316 673.139 333.601 669.911 339.105Z" fill="white"/>
<path d="M42.5622 478.389C40.15 478.389 37.8122 478.046 35.5488 477.361C33.3152 476.676 31.5433 475.768 30.2329 474.636L32.2431 470.124C33.5237 471.137 35.0872 471.971 36.9336 472.626C38.8098 473.251 40.686 473.564 42.5622 473.564C44.8851 473.564 46.6124 473.192 47.7441 472.447C48.9056 471.703 49.4863 470.72 49.4863 469.499C49.4863 468.605 49.1587 467.876 48.5035 467.31C47.8781 466.714 47.074 466.253 46.0913 465.925C45.1085 465.598 43.7683 465.225 42.0708 464.808C39.6884 464.243 37.7526 463.677 36.2635 463.111C34.8043 462.545 33.5386 461.667 32.4665 460.475C31.4241 459.254 30.903 457.616 30.903 455.561C30.903 453.834 31.3646 452.271 32.2878 450.871C33.2408 449.441 34.6554 448.31 36.5316 447.476C38.4376 446.642 40.7605 446.225 43.5003 446.225C45.4063 446.225 47.2825 446.463 49.1289 446.94C50.9753 447.416 52.5686 448.101 53.9088 448.995L52.0772 453.507C50.7073 452.702 49.2778 452.092 47.7888 451.675C46.2997 451.258 44.8553 451.05 43.4556 451.05C41.1625 451.05 39.4501 451.437 38.3184 452.211C37.2165 452.985 36.6656 454.013 36.6656 455.293C36.6656 456.187 36.9783 456.916 37.6037 457.482C38.2589 458.048 39.0778 458.495 40.0606 458.822C41.0434 459.15 42.3835 459.522 44.081 459.939C46.404 460.475 48.3099 461.041 49.799 461.637C51.288 462.203 52.5537 463.081 53.5961 464.272C54.6682 465.464 55.2042 467.072 55.2042 469.097C55.2042 470.824 54.7277 472.388 53.7747 473.787C52.8515 475.187 51.4369 476.304 49.531 477.138C47.625 477.972 45.3021 478.389 42.5622 478.389Z" fill="white"/>
<path d="M73.828 446.672C76.5381 446.672 78.8908 447.119 80.8861 448.012C82.9112 448.905 84.4598 450.186 85.5319 451.854C86.604 453.521 87.1401 455.502 87.1401 457.795C87.1401 460.058 86.604 462.039 85.5319 463.736C84.4598 465.404 82.9112 466.685 80.8861 467.578C78.8908 468.471 76.5381 468.918 73.828 468.918H66.7699V477.942H60.9626V446.672H73.828ZM73.56 464.004C76.0914 464.004 78.0122 463.468 79.3226 462.396C80.6329 461.324 81.2881 459.79 81.2881 457.795C81.2881 455.8 80.6329 454.266 79.3226 453.194C78.0122 452.122 76.0914 451.586 73.56 451.586H66.7699V464.004H73.56Z" fill="white"/>
<path d="M116.392 473.073V477.942H92.9393V446.672H115.766V451.541H98.7466V459.671H113.846V464.451H98.7466V473.073H116.392Z" fill="white"/>
<path d="M146.318 473.073V477.942H122.866V446.672H145.693V451.541H128.673V459.671H143.772V464.451H128.673V473.073H146.318Z" fill="white"/>
<path d="M152.792 446.672H166.461C169.797 446.672 172.76 447.327 175.351 448.637C177.942 449.918 179.952 451.749 181.382 454.132C182.811 456.485 183.526 459.21 183.526 462.307C183.526 465.404 182.811 468.144 181.382 470.526C179.952 472.879 177.942 474.711 175.351 476.021C172.76 477.302 169.797 477.942 166.461 477.942H152.792V446.672ZM166.193 473.028C168.487 473.028 170.497 472.596 172.224 471.732C173.981 470.839 175.321 469.588 176.245 467.98C177.198 466.342 177.674 464.451 177.674 462.307C177.674 460.163 177.198 458.286 176.245 456.678C175.321 455.04 173.981 453.789 172.224 452.926C170.497 452.032 168.487 451.586 166.193 451.586H158.599V473.028H166.193Z" fill="white"/>
<path d="M210.158 477.942L203.77 468.784C203.502 468.814 203.1 468.829 202.564 468.829H195.506V477.942H189.698V446.672H202.564C205.274 446.672 207.626 447.119 209.622 448.012C211.647 448.905 213.195 450.186 214.268 451.854C215.34 453.521 215.876 455.502 215.876 457.795C215.876 460.148 215.295 462.173 214.134 463.87C213.002 465.568 211.364 466.834 209.22 467.667L216.412 477.942H210.158ZM210.024 457.795C210.024 455.8 209.369 454.266 208.058 453.194C206.748 452.122 204.827 451.586 202.296 451.586H195.506V464.049H202.296C204.827 464.049 206.748 463.513 208.058 462.441C209.369 461.339 210.024 459.79 210.024 457.795Z" fill="white"/>
<path d="M235.819 478.389C231.501 478.389 228.136 477.182 225.723 474.77C223.311 472.328 222.105 468.844 222.105 464.317V446.672H227.912V464.094C227.912 470.229 230.563 473.296 235.864 473.296C241.135 473.296 243.771 470.229 243.771 464.094V446.672H249.489V464.317C249.489 468.844 248.282 472.328 245.87 474.77C243.488 477.182 240.137 478.389 235.819 478.389Z" fill="white"/>
<path d="M285.407 446.672V477.942H280.627L263.384 456.768V477.942H257.622V446.672H262.401L279.645 467.846V446.672H285.407Z" fill="white"/>
<path d="M321.572 446.672V477.942H316.792L299.549 456.768V477.942H293.786V446.672H298.566L315.809 467.846V446.672H321.572Z" fill="white"/>
<path d="M329.951 446.672H335.758V477.942H329.951V446.672Z" fill="white"/>
<path d="M372.002 446.672V477.942H367.222L349.979 456.768V477.942H344.216V446.672H348.996L366.239 467.846V446.672H372.002Z" fill="white"/>
<path d="M401.734 461.949H407.228V474.413C405.62 475.693 403.744 476.676 401.6 477.361C399.455 478.046 397.251 478.389 394.988 478.389C391.802 478.389 388.928 477.704 386.367 476.334C383.805 474.934 381.795 473.013 380.336 470.571C378.877 468.129 378.147 465.374 378.147 462.307C378.147 459.239 378.877 456.485 380.336 454.043C381.795 451.601 383.805 449.695 386.367 448.325C388.958 446.925 391.861 446.225 395.077 446.225C397.698 446.225 400.081 446.657 402.225 447.521C404.369 448.384 406.171 449.65 407.63 451.318L403.967 454.891C401.585 452.509 398.711 451.318 395.346 451.318C393.142 451.318 391.176 451.779 389.449 452.702C387.751 453.626 386.411 454.921 385.428 456.589C384.475 458.257 383.999 460.163 383.999 462.307C383.999 464.391 384.475 466.268 385.428 467.935C386.411 469.603 387.751 470.913 389.449 471.866C391.176 472.819 393.127 473.296 395.301 473.296C397.743 473.296 399.887 472.76 401.734 471.688V461.949Z" fill="white"/>
<path d="M433.04 451.541V461.056H448.139V465.97H433.04V477.942H427.233V446.672H450.06V451.541H433.04Z" fill="white"/>
<path d="M469.935 478.389C466.748 478.389 463.874 477.704 461.313 476.334C458.752 474.934 456.742 473.013 455.283 470.571C453.823 468.099 453.094 465.344 453.094 462.307C453.094 459.269 453.823 456.529 455.283 454.087C456.742 451.615 458.752 449.695 461.313 448.325C463.874 446.925 466.748 446.225 469.935 446.225C473.121 446.225 475.995 446.925 478.556 448.325C481.118 449.695 483.128 451.601 484.587 454.043C486.046 456.485 486.776 459.239 486.776 462.307C486.776 465.374 486.046 468.129 484.587 470.571C483.128 473.013 481.118 474.934 478.556 476.334C475.995 477.704 473.121 478.389 469.935 478.389ZM469.935 473.296C472.02 473.296 473.896 472.834 475.563 471.911C477.231 470.958 478.542 469.648 479.495 467.98C480.448 466.283 480.924 464.391 480.924 462.307C480.924 460.222 480.448 458.346 479.495 456.678C478.542 454.981 477.231 453.67 475.563 452.747C473.896 451.794 472.02 451.318 469.935 451.318C467.85 451.318 465.974 451.794 464.306 452.747C462.639 453.67 461.328 454.981 460.375 456.678C459.422 458.346 458.946 460.222 458.946 462.307C458.946 464.391 459.422 466.283 460.375 467.98C461.328 469.648 462.639 470.958 464.306 471.911C465.974 472.834 467.85 473.296 469.935 473.296Z" fill="white"/>
<path d="M513.391 477.942L507.003 468.784C506.735 468.814 506.333 468.829 505.797 468.829H498.739V477.942H492.932V446.672H505.797C508.507 446.672 510.86 447.119 512.855 448.012C514.88 448.905 516.429 450.186 517.501 451.854C518.573 453.521 519.109 455.502 519.109 457.795C519.109 460.148 518.528 462.173 517.367 463.87C516.235 465.568 514.597 466.834 512.453 467.667L519.645 477.942H513.391ZM513.257 457.795C513.257 455.8 512.602 454.266 511.292 453.194C509.981 452.122 508.06 451.586 505.529 451.586H498.739V464.049H505.529C508.06 464.049 509.981 463.513 511.292 462.441C512.602 461.339 513.257 459.79 513.257 457.795Z" fill="white"/>
<path d="M552.426 478.389C549.269 478.389 546.41 477.704 543.849 476.334C541.317 474.934 539.322 473.013 537.863 470.571C536.433 468.129 535.718 465.374 535.718 462.307C535.718 459.239 536.448 456.485 537.907 454.043C539.367 451.601 541.362 449.695 543.893 448.325C546.454 446.925 549.313 446.225 552.47 446.225C555.031 446.225 557.369 446.672 559.484 447.565C561.598 448.459 563.385 449.754 564.844 451.452L561.092 454.981C558.828 452.539 556.044 451.318 552.738 451.318C550.594 451.318 548.673 451.794 546.976 452.747C545.278 453.67 543.953 454.966 543 456.634C542.047 458.301 541.57 460.192 541.57 462.307C541.57 464.421 542.047 466.312 543 467.98C543.953 469.648 545.278 470.958 546.976 471.911C548.673 472.834 550.594 473.296 552.738 473.296C556.044 473.296 558.828 472.06 561.092 469.588L564.844 473.162C563.385 474.859 561.583 476.155 559.439 477.048C557.324 477.942 554.987 478.389 552.426 478.389Z" fill="white"/>
<path d="M598.194 446.672V477.942H592.387V464.54H576.216V477.942H570.409V446.672H576.216V459.582H592.387V446.672H598.194Z" fill="white"/>
<path d="M626.854 470.705H611.219L608.137 477.942H602.151L616.222 446.672H621.94L636.056 477.942H629.981L626.854 470.705ZM624.933 466.149L619.036 452.479L613.185 466.149H624.933Z" fill="white"/>
<path d="M660.493 477.942L654.105 468.784C653.837 468.814 653.435 468.829 652.898 468.829H645.84V477.942H640.033V446.672H652.898C655.609 446.672 657.961 447.119 659.957 448.012C661.982 448.905 663.53 450.186 664.602 451.854C665.674 453.521 666.211 455.502 666.211 457.795C666.211 460.148 665.63 462.173 664.468 463.87C663.337 465.568 661.699 466.834 659.555 467.667L666.747 477.942H660.493ZM660.359 457.795C660.359 455.8 659.703 454.266 658.393 453.194C657.083 452.122 655.162 451.586 652.63 451.586H645.84V464.049H652.63C655.162 464.049 657.083 463.513 658.393 462.441C659.703 461.339 660.359 459.79 660.359 457.795Z" fill="white"/>
<path d="M672.708 446.672H678.515V477.942H672.708V446.672Z" fill="white"/>
<path d="M693.316 451.586H682.953V446.672H709.487V451.586H699.124V477.942H693.316V451.586Z" fill="white"/>
<path d="M726.9 466.908V477.942H721.093V466.997L708.808 446.672H715.018L724.175 461.905L733.422 446.672H739.14L726.9 466.908Z" fill="white"/>
<path d="M584.999 546.53V556.942H543.272V548.66L564.569 528.546C566.831 526.39 568.356 524.549 569.144 523.024C569.933 521.446 570.328 519.895 570.328 518.37C570.328 516.162 569.565 514.479 568.04 513.322C566.568 512.112 564.385 511.508 561.493 511.508C559.074 511.508 556.892 511.981 554.946 512.928C553.001 513.822 551.37 515.189 550.056 517.029L540.748 511.034C542.904 507.827 545.875 505.329 549.661 503.541C553.448 501.701 557.786 500.78 562.676 500.78C566.778 500.78 570.354 501.464 573.404 502.831C576.506 504.146 578.899 506.039 580.582 508.51C582.317 510.929 583.185 513.795 583.185 517.108C583.185 520.106 582.554 522.919 581.292 525.548C580.03 528.177 577.584 531.175 573.956 534.54L561.256 546.53H584.999Z" fill="white"/>
<path d="M615.753 557.888C611.178 557.888 607.103 556.758 603.527 554.497C599.951 552.235 597.138 548.975 595.087 544.716C593.089 540.404 592.089 535.277 592.089 529.334C592.089 523.392 593.089 518.291 595.087 514.032C597.138 509.72 599.951 506.433 603.527 504.172C607.103 501.911 611.178 500.78 615.753 500.78C620.328 500.78 624.403 501.911 627.979 504.172C631.555 506.433 634.342 509.72 636.34 514.032C638.391 518.291 639.417 523.392 639.417 529.334C639.417 535.277 638.391 540.404 636.34 544.716C634.342 548.975 631.555 552.235 627.979 554.497C624.403 556.758 620.328 557.888 615.753 557.888ZM615.753 547.082C619.118 547.082 621.748 545.636 623.641 542.744C625.587 539.851 626.559 535.382 626.559 529.334C626.559 523.287 625.587 518.817 623.641 515.925C621.748 513.033 619.118 511.587 615.753 511.587C612.44 511.587 609.811 513.033 607.865 515.925C605.972 518.817 605.025 523.287 605.025 529.334C605.025 535.382 605.972 539.851 607.865 542.744C609.811 545.636 612.44 547.082 615.753 547.082Z" fill="white"/>
<path d="M688.388 546.53V556.942H646.662V548.66L667.959 528.546C670.22 526.39 671.745 524.549 672.534 523.024C673.323 521.446 673.717 519.895 673.717 518.37C673.717 516.162 672.955 514.479 671.43 513.322C669.957 512.112 667.775 511.508 664.883 511.508C662.464 511.508 660.281 511.981 658.336 512.928C656.39 513.822 654.76 515.189 653.445 517.029L644.138 511.034C646.294 507.827 649.265 505.329 653.051 503.541C656.837 501.701 661.175 500.78 666.066 500.78C670.168 500.78 673.743 501.464 676.793 502.831C679.896 504.146 682.289 506.039 683.971 508.51C685.707 510.929 686.574 513.795 686.574 517.108C686.574 520.106 685.943 522.919 684.681 525.548C683.419 528.177 680.974 531.175 677.345 534.54L664.646 546.53H688.388Z" fill="white"/>
<path d="M736.886 546.53V556.942H695.16V548.66L716.457 528.546C718.718 526.39 720.243 524.549 721.032 523.024C721.821 521.446 722.215 519.895 722.215 518.37C722.215 516.162 721.453 514.479 719.928 513.322C718.455 512.112 716.273 511.508 713.381 511.508C710.962 511.508 708.779 511.981 706.834 512.928C704.888 513.822 703.258 515.189 701.943 517.029L692.636 511.034C694.792 507.827 697.763 505.329 701.549 503.541C705.335 501.701 709.673 500.78 714.564 500.78C718.666 500.78 722.241 501.464 725.291 502.831C728.394 504.146 730.787 506.039 732.469 508.51C734.205 510.929 735.072 513.795 735.072 517.108C735.072 520.106 734.441 522.919 733.179 525.548C731.917 528.177 729.472 531.175 725.843 534.54L713.144 546.53H736.886Z" fill="white"/>
</g>
<defs>
<filter id="filter0_d_6_1731" x="0.174316" y="0" width="739.495" height="562.942" filterUnits="userSpaceOnUse" color-interpolation-filters="sRGB">
<feFlood flood-opacity="0" result="BackgroundImageFix"/>
<feColorMatrix in="SourceAlpha" type="matrix" values="0 0 0 0 0 0 0 0 0 0 0 0 0 0 0 0 0 0 127 0" result="hardAlpha"/>
<feOffset dx="-5" dy="5"/>
<feComposite in2="hardAlpha" operator="out"/>
<feColorMatrix type="matrix" values="0 0 0 0 1 0 0 0 0 0.188235 0 0 0 0 0 0 0 0 0.5 0"/>
<feBlend mode="normal" in2="BackgroundImageFix" result="effect1_dropShadow_6_1731"/>
<feBlend mode="normal" in="SourceGraphic" in2="effect1_dropShadow_6_1731" result="shape"/>
</filter>
</defs>
</svg>
