<?xml version="1.0" encoding="UTF-8" standalone="no"?>
<svg
   id="wasd-keys"
   viewBox="0 0 201.18559 137.95545"
   version="1.1"
   xmlns="http://www.w3.org/2000/svg"
   xmlns:svg="http://www.w3.org/2000/svg">
  <defs
     id="defs14">
    <filter
       style="color-interpolation-filters:sRGB;"
       id="filter3184"
       x="-0.0059644769"
       y="-0.0086983575"
       width="1.011929"
       height="1.0173967">
      <feFlood
         flood-opacity="1"
         flood-color="rgb(0,0,0)"
         result="flood"
         id="feFlood3174" />
      <feComposite
         in="flood"
         in2="SourceGraphic"
         operator="in"
         result="composite1"
         id="feComposite3176" />
      <feGaussianBlur
         in="composite1"
         stdDeviation="0.5"
         result="blur"
         id="feGaussianBlur3178" />
      <feOffset
         dx="0"
         dy="0"
         result="offset"
         id="feOffset3180" />
      <feComposite
         in="SourceGraphic"
         in2="offset"
         operator="over"
         result="composite2"
         id="feComposite3182" />
    </filter>
  </defs>
  <g
     id="g95"
     transform="matrix(0.97571571,0,0,0.97571571,2.8851555,1.3501895)"
     style="fill:#ffffff;filter:url(#filter3184)">
    <g
       aria-label="SUMMER"
       transform="scale(1.0252298,0.97539108)"
       id="text20179"
       style="font-size:23.025px;line-height:0;font-family:DAGGERSQUARE;-inkscape-font-specification:DAGGERSQUARE;letter-spacing:0px;fill:#ffffff;stroke-width:0.959377">
      <path
         d="m 60.337939,136.15116 c 0.391425,-2.27947 -1.128225,-4.1445 -3.4077,-4.1445 H 52.60154 c -0.621675,0 -1.05915,-0.50655 -0.944025,-1.15125 l 0.13815,-0.87495 c 0.115125,-0.6447 0.7368,-1.15125 1.358474,-1.15125 h 6.40095 l 1.4736,-3.06232 h -7.368 c -2.279474,0 -4.489874,1.86502 -4.881299,4.1445 l -0.1842,1.0131 c -0.391425,2.27947 1.128225,4.1445 3.4077,4.1445 h 4.305674 c 0.6447,0 1.05915,0.50655 0.944025,1.15125 l -0.13815,0.89797 c -0.115125,0.62168 -0.713775,1.15125 -1.358475,1.15125 H 48.22679 l -1.450575,3.0393 h 8.519249 c 2.279475,0 4.46685,-1.86502 4.858275,-4.1445 z"
         style="line-height:1.25;fill:#ffffff"
         id="path51" />
      <path
         d="M 75.304165,125.76689 H 72.24184 l -2.003175,11.35132 c -0.115125,0.62168 -0.713775,1.15125 -1.358475,1.15125 h -3.108375 c -0.621675,0 -1.05915,-0.52957 -0.944025,-1.15125 l 2.003175,-11.35132 h -3.0393 l -2.0262,11.39737 c -0.391425,2.27948 1.15125,4.1445 3.430725,4.1445 h 3.2235 c 2.279475,0 4.46685,-1.86502 4.858275,-4.1445 z"
         style="line-height:1.25;fill:#ffffff"
         id="path53" />
      <path
         d="m 88.681674,125.76689 -5.272725,6.70027 -2.878125,-6.70027 h -3.0393 l -2.739975,15.54187 h 3.0393 l 1.70385,-9.6705 2.049225,4.76618 h 2.34855 l 3.753075,-4.76618 -1.70385,9.6705 h 3.0393 l 2.739974,-15.54187 z"
         style="line-height:1.25;fill:#ffffff"
         id="path55" />
      <path
         d="m 105.09848,125.76689 -5.272722,6.70027 -2.878125,-6.70027 h -3.0393 l -2.739975,15.54187 h 3.0393 l 1.70385,-9.6705 2.049225,4.76618 h 2.348547 l 3.75308,-4.76618 -1.70385,9.6705 h 3.0393 l 2.73997,-15.54187 z"
         style="line-height:1.25;fill:#ffffff"
         id="path57" />
      <path
         d="m 113.80192,132.00666 -1.81898,1.54268 0.62168,-3.56888 c 0.11512,-0.6447 0.7368,-1.15125 1.35847,-1.15125 h 5.7102 l 1.4736,-3.06232 h -6.67725 c -2.27947,0 -4.48987,1.86502 -4.8813,4.1445 l -1.2894,7.25287 c -0.39142,2.27948 1.15125,4.1445 3.43073,4.1445 h 6.67725 l 0.52957,-3.0393 h -6.6312 c -0.62167,0 -1.05915,-0.52957 -0.94402,-1.15125 l 0.34537,-2.04922 h 7.78245 l 0.5526,-3.06233 z"
         style="line-height:1.25;fill:#ffffff"
         id="path59" />
      <path
         d="m 134.80069,132.49019 v 0.0691 c 0,-0.023 0,-0.0461 0,-0.0691 z m 0.4605,-2.64788 v 0.0691 c 0,-0.023 0,-0.0461 0,-0.0691 z m -1.51965,11.46645 -2.04923,-5.04247 c 1.54268,-0.6447 2.78603,-2.07225 3.10838,-3.70703 0,-0.023 0,-0.0461 0,-0.0691 l 0.4605,-2.5788 c 0,-0.023 0,-0.0461 0,-0.0691 0.3684,-2.25645 -1.15125,-4.07542 -3.4077,-4.07542 h -8.51925 l -2.73998,15.54187 h 3.0393 l 2.18738,-12.47955 h 5.41087 c 0.6447,0 1.05915,0.50655 0.94403,1.15125 l -0.41445,2.44065 c -0.11513,0.6447 -0.71378,1.15125 -1.35848,1.15125 h -3.29257 l -1.4736,3.06233 h 2.69392 l 1.88805,4.67407 z"
         style="line-height:1.25;fill:#ffffff"
         id="path61" />
    </g>
    <path
       d="M 116.58322,0 H 61.82729 a 3.03075,3.03075 0 1 0 0,6.0615 h 24.246 a 3.03075,3.03075 0 0 1 0,6.0615 h -30.3075 a 3.03075,3.03075 0 0 0 0,6.0615 H 72.738 a 3.03075,3.03075 0 0 1 0,6.0615 h -8.78919 a 3.33382,3.33382 0 0 0 0,6.66764 h 11.81992 a 3.03075,3.03075 0 0 1 0,6.0615 H 50.91659 a 3.03075,3.03075 0 0 0 0,6.0615 h 32.12594 a 3.03075,3.03075 0 0 1 0,6.0615 H 63.64574 a 3.03075,3.03075 0 0 0 0,6.0615 h 52.93748 a 6.48422,6.48422 0 0 0 6.46521,-6.46521 V 6.4652 A 6.4842,6.4842 0 0 0 116.58322,0 Z m -12.495,36.51106 H 99.60895 L 95.56924,22.63354 91.47476,36.51106 h -4.452 L 80.53743,17.27468 h 4.67162 l 4.177,14.67457 4.14953,-14.67457 h 4.25962 l 4.20428,14.67457 4.12229,-14.67457 H 110.601 Z M 71.72813,61.22114 H 13.94145 a 3.03075,3.03075 0 0 0 0,6.0615 h 27.27674 a 3.03075,3.03075 0 0 1 0,6.0615 H 3.03075 a 3.03075,3.03075 0 1 0 0,6.06149 H 36.369 a 3.03075,3.03075 0 1 1 0,6.0615 H 19.69987 a 3.33383,3.33383 0 0 0 0,6.66765 h 10.00147 a 3.03075,3.03075 0 1 1 0,6.0615 H 12.123 a 3.03075,3.03075 0 0 0 0,6.0615 h 21.82139 a 3.03075,3.03075 0 1 1 0,6.0615 H 16.9722 a 3.03075,3.03075 0 0 0 0,6.0615 h 54.75593 a 6.48422,6.48422 0 0 0 6.4652,-6.46521 V 67.68634 a 6.48418,6.48418 0 0 0 -6.4652,-6.4652 z M 56.609,97.7322 55.09747,93.99467 h -8.9037 L 44.68254,97.7322 H 40.203 l 8.3541,-19.23638 h 4.47953 L 61.2531,97.7322 Z"
       id="path2"
       style="fill:#ffffff" />
    <path
       d="m 47.623,90.505 h 6.073 L 50.673,83.03 Z M 132.94927,61.22114 H 90.72 a 6.48419,6.48419 0 0 0 -6.46521,6.4652 v 42.22923 a 6.48422,6.48422 0 0 0 6.46521,6.46521 h 42.22923 a 6.48422,6.48422 0 0 0 6.4652,-6.46521 V 67.68634 a 6.48419,6.48419 0 0 0 -6.46516,-6.4652 z m -14.17112,34.05153 a 6.01826,6.01826 0 0 1 -2.67914,2.01971 10.30437,10.30437 0 0 1 -3.87486,0.68725 13.25685,13.25685 0 0 1 -4.58993,-0.82458 12.38835,12.38835 0 0 1 -3.90179,-2.25353 l 1.73114,-3.54455 a 11.71048,11.71048 0 0 0 3.35276,2.1156 9.01958,9.01958 0 0 0 3.46228,0.79676 3.82014,3.82014 0 0 0 2.10258,-0.49427 1.728,1.728 0 0 0 0.24743,-2.65191 A 3.91318,3.91318 0 0 0 113.337,90.34 q -0.78314,-0.30189 -2.157,-0.68665 a 24.54365,24.54365 0 0 1 -3.22964,-1.09984 5.6676,5.6676 0 0 1 -2.15674,-1.67638 4.6322,4.6322 0 0 1 -0.90686,-2.99523 5.08032,5.08032 0 0 1 0.93409,-3.03667 5.92641,5.92641 0 0 1 2.61076,-2.0055 10.04776,10.04776 0 0 1 3.90209,-0.70086 13.51525,13.51525 0 0 1 3.90268,0.57655 13.22684,13.22684 0 0 1 3.40723,1.53905 l -1.67639,3.6002 a 14.59158,14.59158 0 0 0 -3.14677,-1.44316 9.53825,9.53825 0 0 0 -2.84369,-0.53511 3.34945,3.34945 0 0 0 -1.78649,0.412 1.33847,1.33847 0 0 0 -0.65942,1.20875 1.69381,1.69381 0 0 0 0.94829,1.55325 14.66377,14.66377 0 0 0 2.92657,1.11286 25.29214,25.29214 0 0 1 3.25628,1.15429 5.7721,5.7721 0 0 1 2.18486,1.73084 4.7998,4.7998 0 0 1 0.90686,3.05028 5.22888,5.22888 0 0 1 -0.97556,3.174 z m 56.96151,-12.36628 a 5.7938,5.7938 0 0 0 -2.9538,-0.75532 h -3.73753 v 11.92647 h 3.92932 a 5.53779,5.53779 0 0 0 2.87211,-0.75591 5.25329,5.25329 0 0 0 1.99248,-2.102 6.47054,6.47054 0 0 0 0.71389,-3.07811 6.3433,6.3433 0 0 0 -0.75532,-3.10533 5.43614,5.43614 0 0 0 -2.06115,-2.1298 z"
       id="path4"
       style="fill:#ffffff" />
    <path
       d="m 194.17041,61.22114 h -42.22924 a 6.48419,6.48419 0 0 0 -6.4652,6.4652 v 42.22923 a 6.48422,6.48422 0 0 0 6.4652,6.46521 h 42.22924 a 6.48422,6.48422 0 0 0 6.4652,-6.46521 V 67.68634 a 6.48419,6.48419 0 0 0 -6.4652,-6.4652 z M 181.67567,93.102 a 9.01993,9.01993 0 0 1 -3.64164,3.40722 11.317,11.317 0 0 1 -5.331,1.223 h -7.99715 v -19.2364 h 8.16171 a 11.04348,11.04348 0 0 1 5.24935,1.223 8.867,8.867 0 0 1 3.586,3.40782 9.69223,9.69223 0 0 1 1.27741,4.98771 9.543,9.543 0 0 1 -1.30468,4.98765 z"
       id="path6"
       style="fill:#ffffff" />
    <path
       d="m 149.10063,134.93787 h 9.55468 l -0.52539,3.01758 h -12.57226 l 0.8916,-5.12012 a 5.13565,5.13565 0 0 1 4.8457,-4.11426 h 4.27442 a 1.4126,1.4126 0 0 0 1.34863,-1.14258 l 0.13769,-0.86914 a 0.92146,0.92146 0 0 0 -0.9375,-1.14258 h -6.332 l -0.36523,-3.04 h 7.31445 a 3.36687,3.36687 0 0 1 3.38281,4.11426 l -0.18261,1.00586 a 5.13566,5.13566 0 0 1 -4.84571,4.11426 H 150.793 a 1.43325,1.43325 0 0 0 -1.34961,1.14258 z m 26.48925,-8.29687 -1.27929,7.2002 a 5.11113,5.11113 0 0 1 -4.82325,4.11426 h -3.20019 a 3.38138,3.38138 0 0 1 -3.40527,-4.11426 l 1.27929,-7.2002 a 5.13566,5.13566 0 0 1 4.84571,-4.11426 h 3.20019 a 3.36643,3.36643 0 0 1 3.38281,4.11426 z m -3.0625,0.0684 a 0.92146,0.92146 0 0 0 -0.9375,-1.14258 h -3.085 a 1.43306,1.43306 0 0 0 -1.34863,1.14258 l -1.23438,7.08594 a 0.93966,0.93966 0 0 0 0.93653,1.14258 h 3.08594 a 1.436,1.436 0 0 0 1.34863,-1.14258 z m 8.66016,8.22851 h 9.55469 l -0.52637,3.01758 h -12.57129 l 0.8916,-5.12012 a 5.13565,5.13565 0 0 1 4.84571,-4.11426 h 4.27441 a 1.41344,1.41344 0 0 0 1.34863,-1.14258 l 0.13672,-0.86914 a 0.92126,0.92126 0 0 0 -0.93652,-1.14258 h -6.332 l -0.36524,-3.04 h 7.31446 a 3.36687,3.36687 0 0 1 3.38281,4.11426 l -0.18262,1.00586 a 5.13585,5.13585 0 0 1 -4.84668,4.11426 H 182.879 a 1.43306,1.43306 0 0 0 -1.34864,1.14258 z m 17.27734,3.01758 h -3.04 l 2.17188,-12.38868 h -1.874 l 1.46289,-3.04 h 4 z"
       id="path8"
       style="fill:#ffffff" />
    <g
       id="text4397"
       style="font-style:oblique;font-size:40px;line-height:0.95;font-family:DAGGERSQUARE;-inkscape-font-specification:'DAGGERSQUARE Oblique';fill:#ffffff" />
  </g>
</svg>
