<svg width="740" height="563" viewBox="0 0 740 563" fill="none" xmlns="http://www.w3.org/2000/svg">
<g filter="url(#filter0_d_126_2272)">
<path fill-rule="evenodd" clip-rule="evenodd" d="M432.086 0H232.182C229.247 0 226.433 1.16301 224.358 3.23319C222.283 5.30337 221.117 8.11113 221.117 11.0388C221.117 13.9665 222.283 16.7742 224.358 18.8444C226.433 20.9146 229.247 22.0776 232.182 22.0776H320.7C323.634 22.0776 326.449 23.2406 328.524 25.3108C330.599 27.381 331.765 30.1887 331.765 33.1164C331.765 36.0441 330.599 38.8518 328.524 40.922C326.449 42.9922 323.634 44.1552 320.7 44.1552H210.052C207.118 44.1552 204.303 45.3182 202.228 47.3884C200.153 49.4586 198.987 52.2663 198.987 55.194C198.987 58.1217 200.153 60.9294 202.228 62.9996C204.303 65.0698 207.118 66.2328 210.052 66.2328H272.015C274.949 66.2328 277.764 67.3958 279.839 69.466C281.914 71.5362 283.08 74.3439 283.08 77.2716C283.08 80.1993 281.914 83.007 279.839 85.0772C277.764 87.1474 274.949 88.3104 272.015 88.3104H239.927C236.699 88.3104 233.603 89.5897 231.321 91.8669C229.038 94.1441 227.756 97.2326 227.756 100.453C227.756 103.673 229.038 106.762 231.321 109.039C233.603 111.316 236.699 112.596 239.927 112.596H283.079C286.014 112.596 288.828 113.759 290.903 115.829C292.978 117.899 294.144 120.707 294.144 123.635C294.144 126.562 292.978 129.37 290.903 131.44C288.828 133.51 286.014 134.673 283.079 134.673H192.348C189.414 134.673 186.6 135.836 184.524 137.906C182.449 139.977 181.284 142.784 181.284 145.712C181.284 148.64 182.449 151.448 184.524 153.518C186.6 155.588 189.414 156.751 192.348 156.751H309.635C312.569 156.751 315.384 157.914 317.459 159.984C319.534 162.054 320.7 164.862 320.7 167.79C320.7 170.717 319.534 173.525 317.459 175.595C315.384 177.665 312.569 178.828 309.635 178.828H238.82C235.886 178.828 233.072 179.992 230.996 182.062C228.921 184.132 227.756 186.94 227.756 189.867C227.756 192.795 228.921 195.603 230.996 197.673C233.072 199.743 235.886 200.906 238.82 200.906H432.086C438.341 200.888 444.334 198.401 448.756 193.989C453.179 189.577 455.671 183.598 455.69 177.358V23.548C455.671 17.3083 453.179 11.3294 448.756 6.9172C444.334 2.50505 438.341 0.0182473 432.086 0ZM370.116 132.983H386.469L410.246 62.919H393.893L378.844 116.368L363.494 62.919H347.943L332.794 116.368L317.545 62.919H300.489L324.166 132.983H340.42L355.368 82.4374L370.116 132.983Z" fill="#222222"/>
<path d="M268.328 222.984H57.3584C54.4239 222.984 51.6095 224.147 49.5345 226.217C47.4594 228.287 46.2937 231.095 46.2937 234.023C46.2937 236.95 47.4594 239.758 49.5345 241.828C51.6095 243.898 54.4239 245.061 57.3584 245.061H156.941C159.876 245.061 162.69 246.225 164.765 248.295C166.84 250.365 168.006 253.173 168.006 256.1C168.006 259.028 166.84 261.836 164.765 263.906C162.69 265.976 159.876 267.139 156.941 267.139H17.5253C16.0706 267.136 14.6296 267.42 13.2848 267.974C11.9401 268.527 10.7179 269.34 9.68833 270.365C8.65874 271.39 7.84192 272.608 7.28461 273.949C6.72729 275.289 6.44043 276.727 6.44043 278.178C6.44043 279.629 6.72729 281.066 7.28461 282.407C7.84192 283.747 8.65874 284.965 9.68833 285.991C10.7179 287.016 11.9401 287.829 13.2848 288.382C14.6296 288.936 16.0706 289.219 17.5253 289.217H139.238C142.172 289.217 144.987 290.38 147.062 292.45C149.137 294.52 150.302 297.328 150.302 300.255C150.302 303.183 149.137 305.991 147.062 308.061C144.987 310.131 142.172 311.294 139.238 311.294H78.3815C75.1571 311.3 72.0667 312.582 69.7887 314.858C67.5107 317.135 66.2313 320.22 66.2313 323.437C66.2313 326.654 67.5107 329.739 69.7887 332.016C72.0667 334.292 75.1571 335.574 78.3815 335.58H114.895C117.83 335.58 120.644 336.743 122.719 338.813C124.794 340.883 125.96 343.691 125.96 346.618C125.96 349.546 124.794 352.354 122.719 354.424C120.644 356.494 117.83 357.657 114.895 357.657H50.7196C47.785 357.657 44.9707 358.82 42.8956 360.89C40.8206 362.961 39.6548 365.768 39.6548 368.696C39.6548 371.624 40.8206 374.431 42.8956 376.502C44.9707 378.572 47.785 379.735 50.7196 379.735H130.386C133.32 379.735 136.135 380.898 138.21 382.968C140.285 385.038 141.451 387.846 141.451 390.774C141.451 393.701 140.285 396.509 138.21 398.579C136.135 400.649 133.32 401.812 130.386 401.812H68.4232C65.4886 401.812 62.6743 402.975 60.5992 405.046C58.5242 407.116 57.3584 409.924 57.3584 412.851C57.3584 415.779 58.5242 418.587 60.5992 420.657C62.6743 422.727 65.4886 423.89 68.4232 423.89H268.328C274.582 423.872 280.575 421.385 284.998 416.973C289.42 412.561 291.913 406.582 291.931 400.342V246.532C291.913 240.292 289.42 234.313 284.998 229.901C280.575 225.489 274.582 223.002 268.328 222.984ZM213.131 355.967L207.612 342.354H175.106L169.589 355.967H153.235L183.734 285.903H200.088L230.085 355.967H213.131Z" fill="#222222"/>
<path d="M202.504 329.646H180.333L191.468 302.421L202.504 329.646Z" fill="#222222"/>
<path d="M491.845 222.987H337.673C331.418 223.005 325.425 225.492 321.003 229.904C316.58 234.316 314.088 240.295 314.069 246.535V400.345C314.088 406.585 316.58 412.563 321.003 416.976C325.425 421.388 331.418 423.875 337.673 423.893H491.845C498.099 423.875 504.092 421.388 508.514 416.976C512.937 412.563 515.43 406.585 515.448 400.345V246.535C515.43 240.295 512.937 234.316 508.514 229.904C504.092 225.492 498.099 223.005 491.845 222.987ZM440.108 347.011C437.613 350.339 434.221 352.89 430.327 354.368C425.817 356.101 421.014 356.951 416.181 356.871C410.461 356.866 404.788 355.849 399.424 353.868C394.212 352.023 389.384 349.241 385.179 345.66L391.499 332.749C395.111 335.993 399.25 338.599 403.739 340.455C407.718 342.249 412.015 343.235 416.38 343.357C419.059 343.506 421.724 342.881 424.056 341.557C424.824 341.035 425.466 340.351 425.938 339.553C426.41 338.754 426.7 337.862 426.786 336.939C426.872 336.017 426.753 335.086 426.437 334.215C426.122 333.343 425.617 332.552 424.959 331.898C423.588 330.651 421.986 329.682 420.244 329.045C418.337 328.312 415.713 327.479 412.369 326.544C408.35 325.484 404.41 324.145 400.578 322.539C397.494 321.174 394.79 319.078 392.704 316.433C390.365 313.29 389.195 309.433 389.393 305.523C389.315 301.568 390.511 297.691 392.803 294.463C395.225 291.179 398.53 288.646 402.335 287.158C406.866 285.372 411.709 284.504 416.581 284.606C421.407 284.607 426.208 285.314 430.829 286.706C435.22 287.977 439.408 289.865 443.268 292.311L437.148 305.424C433.541 303.223 429.684 301.459 425.659 300.168C422.318 298.995 418.817 298.338 415.278 298.219C413.006 298.104 410.747 298.624 408.755 299.719C407.992 300.167 407.365 300.813 406.941 301.588C406.517 302.364 406.312 303.239 406.348 304.122C406.326 305.296 406.64 306.452 407.253 307.454C407.866 308.456 408.753 309.263 409.81 309.779C413.216 311.507 416.798 312.866 420.494 313.833C424.549 314.962 428.521 316.367 432.383 318.037C435.518 319.457 438.256 321.621 440.359 324.341C442.697 327.561 443.865 331.48 443.67 335.451C443.773 339.588 442.523 343.646 440.108 347.011ZM648.065 301.97C644.781 300.109 641.058 299.159 637.281 299.219H623.636V342.659H637.981C641.663 342.71 645.288 341.758 648.467 339.905C651.563 338.084 654.084 335.431 655.741 332.249C657.525 328.784 658.421 324.933 658.348 321.038C658.411 317.095 657.462 313.201 655.59 309.728C653.85 306.496 651.245 303.811 648.065 301.97Z" fill="#222222"/>
<path d="M715.353 222.987H561.181C554.927 223.005 548.934 225.492 544.511 229.904C540.089 234.316 537.596 240.295 537.578 246.535V400.345C537.596 406.585 540.089 412.563 544.511 416.976C548.934 421.388 554.927 423.875 561.181 423.893H715.353C721.607 423.875 727.6 421.388 732.023 416.976C736.445 412.563 738.938 406.585 738.956 400.345V246.535C738.938 240.295 736.445 234.316 732.023 229.904C727.6 225.492 721.607 223.005 715.353 222.987V222.987ZM669.737 339.105C666.562 344.406 661.954 348.707 656.442 351.515C650.417 354.565 643.734 356.095 636.979 355.97H607.783V285.906H637.58C644.239 285.789 650.823 287.319 656.744 290.36C662.2 293.175 666.741 297.48 669.836 302.772C673.004 308.298 674.615 314.575 674.5 320.939C674.613 327.316 672.965 333.601 669.737 339.105V339.105Z" fill="#222222"/>
<path d="M42.3879 478.389C39.9756 478.389 37.6378 478.046 35.3745 477.361C33.1409 476.676 31.369 475.768 30.0586 474.636L32.0688 470.124C33.3494 471.137 34.9129 471.971 36.7593 472.626C38.6355 473.251 40.5117 473.564 42.3879 473.564C44.7108 473.564 46.4381 473.192 47.5698 472.447C48.7312 471.703 49.312 470.72 49.312 469.499C49.312 468.605 48.9844 467.876 48.3292 467.31C47.7038 466.714 46.8997 466.253 45.9169 465.925C44.9342 465.598 43.594 465.225 41.8965 464.808C39.514 464.243 37.5783 463.677 36.0892 463.111C34.63 462.545 33.3643 461.667 32.2922 460.475C31.2498 459.254 30.7287 457.616 30.7287 455.561C30.7287 453.834 31.1903 452.271 32.1135 450.871C33.0665 449.441 34.4811 448.31 36.3573 447.476C38.2632 446.642 40.5862 446.225 43.326 446.225C45.232 446.225 47.1082 446.463 48.9546 446.94C50.801 447.416 52.3943 448.101 53.7344 448.995L51.9029 453.507C50.533 452.702 49.1035 452.092 47.6145 451.675C46.1254 451.258 44.681 451.05 43.2813 451.05C40.9882 451.05 39.2758 451.437 38.1441 452.211C37.0422 452.985 36.4913 454.013 36.4913 455.293C36.4913 456.187 36.804 456.916 37.4294 457.482C38.0846 458.048 38.9035 458.495 39.8863 458.822C40.8691 459.15 42.2092 459.522 43.9067 459.939C46.2296 460.475 48.1356 461.041 49.6247 461.637C51.1137 462.203 52.3794 463.081 53.4217 464.272C54.4938 465.464 55.0299 467.072 55.0299 469.097C55.0299 470.824 54.5534 472.388 53.6004 473.787C52.6772 475.187 51.2626 476.304 49.3566 477.138C47.4507 477.972 45.1277 478.389 42.3879 478.389Z" fill="#222222"/>
<path d="M73.6537 446.672C76.3638 446.672 78.7165 447.119 80.7118 448.012C82.7369 448.905 84.2855 450.186 85.3576 451.854C86.4297 453.521 86.9658 455.502 86.9658 457.795C86.9658 460.058 86.4297 462.039 85.3576 463.736C84.2855 465.404 82.7369 466.685 80.7118 467.578C78.7165 468.471 76.3638 468.918 73.6537 468.918H66.5956V477.942H60.7883V446.672H73.6537ZM73.3857 464.004C75.917 464.004 77.8379 463.468 79.1483 462.396C80.4586 461.324 81.1138 459.79 81.1138 457.795C81.1138 455.8 80.4586 454.266 79.1483 453.194C77.8379 452.122 75.917 451.586 73.3857 451.586H66.5956V464.004H73.3857Z" fill="#222222"/>
<path d="M116.218 473.073V477.942H92.765V446.672H115.592V451.541H98.5723V459.671H113.671V464.451H98.5723V473.073H116.218Z" fill="#222222"/>
<path d="M146.144 473.073V477.942H122.691V446.672H145.518V451.541H128.499V459.671H143.598V464.451H128.499V473.073H146.144Z" fill="#222222"/>
<path d="M152.618 446.672H166.287C169.623 446.672 172.586 447.327 175.177 448.637C177.768 449.918 179.778 451.749 181.207 454.132C182.637 456.485 183.352 459.21 183.352 462.307C183.352 465.404 182.637 468.144 181.207 470.526C179.778 472.879 177.768 474.711 175.177 476.021C172.586 477.302 169.623 477.942 166.287 477.942H152.618V446.672ZM166.019 473.028C168.312 473.028 170.322 472.596 172.05 471.732C173.807 470.839 175.147 469.588 176.07 467.98C177.023 466.342 177.5 464.451 177.5 462.307C177.5 460.163 177.023 458.286 176.07 456.678C175.147 455.04 173.807 453.789 172.05 452.926C170.322 452.032 168.312 451.586 166.019 451.586H158.425V473.028H166.019Z" fill="#222222"/>
<path d="M209.983 477.942L203.595 468.784C203.327 468.814 202.925 468.829 202.389 468.829H195.331V477.942H189.524V446.672H202.389C205.099 446.672 207.452 447.119 209.447 448.012C211.473 448.905 213.021 450.186 214.093 451.854C215.165 453.521 215.701 455.502 215.701 457.795C215.701 460.148 215.121 462.173 213.959 463.87C212.828 465.568 211.19 466.834 209.045 467.667L216.237 477.942H209.983ZM209.849 457.795C209.849 455.8 209.194 454.266 207.884 453.194C206.574 452.122 204.653 451.586 202.121 451.586H195.331V464.049H202.121C204.653 464.049 206.574 463.513 207.884 462.441C209.194 461.339 209.849 459.79 209.849 457.795Z" fill="#222222"/>
<path d="M235.645 478.389C231.327 478.389 227.961 477.182 225.549 474.77C223.137 472.328 221.931 468.844 221.931 464.317V446.672H227.738V464.094C227.738 470.229 230.388 473.296 235.689 473.296C240.961 473.296 243.596 470.229 243.596 464.094V446.672H249.314V464.317C249.314 468.844 248.108 472.328 245.696 474.77C243.313 477.182 239.963 478.389 235.645 478.389Z" fill="#222222"/>
<path d="M285.233 446.672V477.942H280.453L263.21 456.768V477.942H257.447V446.672H262.227L279.47 467.846V446.672H285.233Z" fill="#222222"/>
<path d="M321.397 446.672V477.942H316.618L299.374 456.768V477.942H293.612V446.672H298.392L315.635 467.846V446.672H321.397Z" fill="#222222"/>
<path d="M329.776 446.672H335.584V477.942H329.776V446.672Z" fill="#222222"/>
<path d="M371.827 446.672V477.942H367.047L349.804 456.768V477.942H344.042V446.672H348.822L366.065 467.846V446.672H371.827Z" fill="#222222"/>
<path d="M401.559 461.949H407.054V474.413C405.446 475.693 403.569 476.676 401.425 477.361C399.281 478.046 397.077 478.389 394.814 478.389C391.627 478.389 388.753 477.704 386.192 476.334C383.631 474.934 381.621 473.013 380.162 470.571C378.702 468.129 377.973 465.374 377.973 462.307C377.973 459.239 378.702 456.485 380.162 454.043C381.621 451.601 383.631 449.695 386.192 448.325C388.783 446.925 391.687 446.225 394.903 446.225C397.524 446.225 399.906 446.657 402.051 447.521C404.195 448.384 405.997 449.65 407.456 451.318L403.793 454.891C401.41 452.509 398.536 451.318 395.171 451.318C392.967 451.318 391.002 451.779 389.275 452.702C387.577 453.626 386.237 454.921 385.254 456.589C384.301 458.257 383.825 460.163 383.825 462.307C383.825 464.391 384.301 466.268 385.254 467.935C386.237 469.603 387.577 470.913 389.275 471.866C391.002 472.819 392.953 473.296 395.127 473.296C397.569 473.296 399.713 472.76 401.559 471.688V461.949Z" fill="#222222"/>
<path d="M432.866 451.541V461.056H447.965V465.97H432.866V477.942H427.059V446.672H449.886V451.541H432.866Z" fill="#222222"/>
<path d="M469.761 478.389C466.574 478.389 463.7 477.704 461.139 476.334C458.578 474.934 456.568 473.013 455.108 470.571C453.649 468.099 452.919 465.344 452.919 462.307C452.919 459.269 453.649 456.529 455.108 454.087C456.568 451.615 458.578 449.695 461.139 448.325C463.7 446.925 466.574 446.225 469.761 446.225C472.947 446.225 475.821 446.925 478.382 448.325C480.943 449.695 482.954 451.601 484.413 454.043C485.872 456.485 486.602 459.239 486.602 462.307C486.602 465.374 485.872 468.129 484.413 470.571C482.954 473.013 480.943 474.934 478.382 476.334C475.821 477.704 472.947 478.389 469.761 478.389ZM469.761 473.296C471.845 473.296 473.721 472.834 475.389 471.911C477.057 470.958 478.367 469.648 479.32 467.98C480.273 466.283 480.75 464.391 480.75 462.307C480.75 460.222 480.273 458.346 479.32 456.678C478.367 454.981 477.057 453.67 475.389 452.747C473.721 451.794 471.845 451.318 469.761 451.318C467.676 451.318 465.8 451.794 464.132 452.747C462.464 453.67 461.154 454.981 460.201 456.678C459.248 458.346 458.771 460.222 458.771 462.307C458.771 464.391 459.248 466.283 460.201 467.98C461.154 469.648 462.464 470.958 464.132 471.911C465.8 472.834 467.676 473.296 469.761 473.296Z" fill="#222222"/>
<path d="M513.217 477.942L506.829 468.784C506.561 468.814 506.159 468.829 505.623 468.829H498.565V477.942H492.757V446.672H505.623C508.333 446.672 510.685 447.119 512.681 448.012C514.706 448.905 516.254 450.186 517.327 451.854C518.399 453.521 518.935 455.502 518.935 457.795C518.935 460.148 518.354 462.173 517.193 463.87C516.061 465.568 514.423 466.834 512.279 467.667L519.471 477.942H513.217ZM513.083 457.795C513.083 455.8 512.428 454.266 511.117 453.194C509.807 452.122 507.886 451.586 505.355 451.586H498.565V464.049H505.355C507.886 464.049 509.807 463.513 511.117 462.441C512.428 461.339 513.083 459.79 513.083 457.795Z" fill="#222222"/>
<path d="M552.251 478.389C549.094 478.389 546.235 477.704 543.674 476.334C541.143 474.934 539.148 473.013 537.688 470.571C536.259 468.129 535.544 465.374 535.544 462.307C535.544 459.239 536.274 456.485 537.733 454.043C539.192 451.601 541.188 449.695 543.719 448.325C546.28 446.925 549.139 446.225 552.296 446.225C554.857 446.225 557.195 446.672 559.309 447.565C561.424 448.459 563.211 449.754 564.67 451.452L560.917 454.981C558.654 452.539 555.87 451.318 552.564 451.318C550.42 451.318 548.499 451.794 546.801 452.747C545.104 453.67 543.779 454.966 542.826 456.634C541.873 458.301 541.396 460.192 541.396 462.307C541.396 464.421 541.873 466.312 542.826 467.98C543.779 469.648 545.104 470.958 546.801 471.911C548.499 472.834 550.42 473.296 552.564 473.296C555.87 473.296 558.654 472.06 560.917 469.588L564.67 473.162C563.211 474.859 561.409 476.155 559.265 477.048C557.15 477.942 554.812 478.389 552.251 478.389Z" fill="#222222"/>
<path d="M598.02 446.672V477.942H592.213V464.54H576.042V477.942H570.234V446.672H576.042V459.582H592.213V446.672H598.02Z" fill="#222222"/>
<path d="M626.68 470.705H611.045L607.962 477.942H601.976L616.048 446.672H621.766L635.882 477.942H629.807L626.68 470.705ZM624.759 466.149L618.862 452.479L613.01 466.149H624.759Z" fill="#222222"/>
<path d="M660.318 477.942L653.93 468.784C653.662 468.814 653.26 468.829 652.724 468.829H645.666V477.942H639.859V446.672H652.724C655.434 446.672 657.787 447.119 659.782 448.012C661.807 448.905 663.356 450.186 664.428 451.854C665.5 453.521 666.036 455.502 666.036 457.795C666.036 460.148 665.455 462.173 664.294 463.87C663.162 465.568 661.524 466.834 659.38 467.667L666.572 477.942H660.318ZM660.184 457.795C660.184 455.8 659.529 454.266 658.219 453.194C656.908 452.122 654.987 451.586 652.456 451.586H645.666V464.049H652.456C654.987 464.049 656.908 463.513 658.219 462.441C659.529 461.339 660.184 459.79 660.184 457.795Z" fill="#222222"/>
<path d="M672.533 446.672H678.341V477.942H672.533V446.672Z" fill="#222222"/>
<path d="M693.142 451.586H682.778V446.672H709.313V451.586H698.949V477.942H693.142V451.586Z" fill="#222222"/>
<path d="M726.726 466.908V477.942H720.919V466.997L708.634 446.672H714.843L724.001 461.905L733.248 446.672H738.966L726.726 466.908Z" fill="#222222"/>
<path d="M584.825 546.53V556.942H543.098V548.66L564.395 528.546C566.656 526.39 568.181 524.549 568.97 523.024C569.759 521.446 570.153 519.895 570.153 518.37C570.153 516.162 569.391 514.479 567.866 513.322C566.393 512.112 564.211 511.508 561.319 511.508C558.9 511.508 556.718 511.981 554.772 512.928C552.826 513.822 551.196 515.189 549.881 517.029L540.574 511.034C542.73 507.827 545.701 505.329 549.487 503.541C553.273 501.701 557.612 500.78 562.502 500.78C566.604 500.78 570.18 501.464 573.229 502.831C576.332 504.146 578.725 506.039 580.407 508.51C582.143 510.929 583.01 513.795 583.01 517.108C583.01 520.106 582.379 522.919 581.117 525.548C579.855 528.177 577.41 531.175 573.782 534.54L561.082 546.53H584.825Z" fill="#222222"/>
<path d="M615.579 557.888C611.004 557.888 606.928 556.758 603.352 554.497C599.777 552.235 596.963 548.975 594.912 544.716C592.914 540.404 591.915 535.277 591.915 529.334C591.915 523.392 592.914 518.291 594.912 514.032C596.963 509.72 599.777 506.433 603.352 504.172C606.928 501.911 611.004 500.78 615.579 500.78C620.154 500.78 624.229 501.911 627.805 504.172C631.381 506.433 634.168 509.72 636.166 514.032C638.217 518.291 639.242 523.392 639.242 529.334C639.242 535.277 638.217 540.404 636.166 544.716C634.168 548.975 631.381 552.235 627.805 554.497C624.229 556.758 620.154 557.888 615.579 557.888ZM615.579 547.082C618.944 547.082 621.573 545.636 623.467 542.744C625.412 539.851 626.385 535.382 626.385 529.334C626.385 523.287 625.412 518.817 623.467 515.925C621.573 513.033 618.944 511.587 615.579 511.587C612.266 511.587 609.636 513.033 607.691 515.925C605.798 518.817 604.851 523.287 604.851 529.334C604.851 535.382 605.798 539.851 607.691 542.744C609.636 545.636 612.266 547.082 615.579 547.082Z" fill="#222222"/>
<path d="M688.214 546.53V556.942H646.487V548.66L667.785 528.546C670.046 526.39 671.571 524.549 672.36 523.024C673.148 521.446 673.543 519.895 673.543 518.37C673.543 516.162 672.78 514.479 671.255 513.322C669.783 512.112 667.601 511.508 664.708 511.508C662.289 511.508 660.107 511.981 658.161 512.928C656.216 513.822 654.586 515.189 653.271 517.029L643.963 511.034C646.119 507.827 649.09 505.329 652.877 503.541C656.663 501.701 661.001 500.78 665.892 500.78C669.993 500.78 673.569 501.464 676.619 502.831C679.722 504.146 682.114 506.039 683.797 508.51C685.532 510.929 686.4 513.795 686.4 517.108C686.4 520.106 685.769 522.919 684.507 525.548C683.245 528.177 680.8 531.175 677.171 534.54L664.472 546.53H688.214Z" fill="#222222"/>
<path d="M736.712 546.53V556.942H694.985V548.66L716.283 528.546C718.544 526.39 720.069 524.549 720.858 523.024C721.646 521.446 722.041 519.895 722.041 518.37C722.041 516.162 721.278 514.479 719.753 513.322C718.281 512.112 716.099 511.508 713.206 511.508C710.787 511.508 708.605 511.981 706.659 512.928C704.714 513.822 703.084 515.189 701.769 517.029L692.461 511.034C694.617 507.827 697.588 505.329 701.375 503.541C705.161 501.701 709.499 500.78 714.39 500.78C718.491 500.78 722.067 501.464 725.117 502.831C728.22 504.146 730.612 506.039 732.295 508.51C734.03 510.929 734.898 513.795 734.898 517.108C734.898 520.106 734.267 522.919 733.005 525.548C731.743 528.177 729.298 531.175 725.669 534.54L712.97 546.53H736.712Z" fill="#222222"/>
</g>
<defs>
<filter id="filter0_d_126_2272" x="0" y="0" width="739.495" height="562.942" filterUnits="userSpaceOnUse" color-interpolation-filters="sRGB">
<feFlood flood-opacity="0" result="BackgroundImageFix"/>
<feColorMatrix in="SourceAlpha" type="matrix" values="0 0 0 0 0 0 0 0 0 0 0 0 0 0 0 0 0 0 127 0" result="hardAlpha"/>
<feOffset dx="-5" dy="5"/>
<feComposite in2="hardAlpha" operator="out"/>
<feColorMatrix type="matrix" values="0 0 0 0 1 0 0 0 0 0.188235 0 0 0 0 0 0 0 0 0.5 0"/>
<feBlend mode="normal" in2="BackgroundImageFix" result="effect1_dropShadow_126_2272"/>
<feBlend mode="normal" in="SourceGraphic" in2="effect1_dropShadow_126_2272" result="shape"/>
</filter>
</defs>
</svg>
